# xmcd
#
# Track frame offsets: 
#        150
#        12675
#        33680
#        49530
#        63335
#        73020
#        82505
#        93790
#        103280
#        114275
#        124755
#        139600
#        148605
#        159885
#        169940
#        181300
#        194195
#        207720
#
# Disc length: 2886 seconds
#
# Revision: 0
# Processed by: cddbd v1.5.2PL0 Copyright (c) Steve Scherf et al.
# Submitted via: ExactAudioCopy v1.0b1
#
DISCID=010b4412
DTITLE=Bob Fuller and Friends - Bob Fuller's Hilly Billy Night 40th Aniv
DTITLE=ersary 
DYEAR=2006
DGENRE=Country
TTITLE0=Home on the Range
TTITLE1=Farther Along
TTITLE2=Buffalo Gals
TTITLE3=Grand Ole Opry song
TTITLE4=If Tear Drops Were Pennies
TTITLE5=Waltz Across Texas
TTITLE6=The Yodel Song
TTITLE7=Thank You For the Roses
TTITLE8=Sweetheart Don't Ever Forget
TTITLE9=Cowboy's Sweetheart
TTITLE10=Almost Persuaded
TTITLE11=Whispering Hope
TTITLE12=Smoking Cigarettes And Coffee Blues
TTITLE13=Abilene
TTITLE14=On My Mind
TTITLE15=Lost Highway
TTITLE16=Just Call Me Lonesome
TTITLE17=Faded Love
EXTD=
EXTT0=
EXTT1=
EXTT2=
EXTT3=
EXTT4=
EXTT5=
EXTT6=
EXTT7=
EXTT8=
EXTT9=
EXTT10=
EXTT11=
EXTT12=
EXTT13=
EXTT14=
EXTT15=
EXTT16=
EXTT17=
PLAYORDER=
